%TF.GenerationSoftware,KiCad,Pcbnew,9.0.3*%
%TF.CreationDate,2025-07-19T14:34:47-07:00*%
%TF.ProjectId,Aurora,4175726f-7261-42e6-9b69-6361645f7063,rev?*%
%TF.SameCoordinates,Original*%
%TF.FileFunction,Legend,Top*%
%TF.FilePolarity,Positive*%
%FSLAX46Y46*%
G04 Gerber Fmt 4.6, Leading zero omitted, Abs format (unit mm)*
G04 Created by KiCad (PCBNEW 9.0.3) date 2025-07-19 14:34:47*
%MOMM*%
%LPD*%
G01*
G04 APERTURE LIST*
%ADD10C,0.101600*%
%ADD11C,0.150000*%
%ADD12C,0.504000*%
%ADD13C,0.127000*%
%ADD14C,0.100000*%
%ADD15C,0.120000*%
%ADD16C,0.200000*%
G04 APERTURE END LIST*
D10*
X144516190Y-57653479D02*
X144516190Y-58167526D01*
X144516190Y-58167526D02*
X144546428Y-58228002D01*
X144546428Y-58228002D02*
X144576666Y-58258241D01*
X144576666Y-58258241D02*
X144637142Y-58288479D01*
X144637142Y-58288479D02*
X144758095Y-58288479D01*
X144758095Y-58288479D02*
X144818571Y-58258241D01*
X144818571Y-58258241D02*
X144848809Y-58228002D01*
X144848809Y-58228002D02*
X144879047Y-58167526D01*
X144879047Y-58167526D02*
X144879047Y-57653479D01*
X145514047Y-58288479D02*
X145151190Y-58288479D01*
X145332618Y-58288479D02*
X145332618Y-57653479D01*
X145332618Y-57653479D02*
X145272142Y-57744193D01*
X145272142Y-57744193D02*
X145211666Y-57804669D01*
X145211666Y-57804669D02*
X145151190Y-57834907D01*
D11*
X117166667Y-57533200D02*
X117309524Y-57580819D01*
X117309524Y-57580819D02*
X117547619Y-57580819D01*
X117547619Y-57580819D02*
X117642857Y-57533200D01*
X117642857Y-57533200D02*
X117690476Y-57485580D01*
X117690476Y-57485580D02*
X117738095Y-57390342D01*
X117738095Y-57390342D02*
X117738095Y-57295104D01*
X117738095Y-57295104D02*
X117690476Y-57199866D01*
X117690476Y-57199866D02*
X117642857Y-57152247D01*
X117642857Y-57152247D02*
X117547619Y-57104628D01*
X117547619Y-57104628D02*
X117357143Y-57057009D01*
X117357143Y-57057009D02*
X117261905Y-57009390D01*
X117261905Y-57009390D02*
X117214286Y-56961771D01*
X117214286Y-56961771D02*
X117166667Y-56866533D01*
X117166667Y-56866533D02*
X117166667Y-56771295D01*
X117166667Y-56771295D02*
X117214286Y-56676057D01*
X117214286Y-56676057D02*
X117261905Y-56628438D01*
X117261905Y-56628438D02*
X117357143Y-56580819D01*
X117357143Y-56580819D02*
X117595238Y-56580819D01*
X117595238Y-56580819D02*
X117738095Y-56628438D01*
X118071429Y-56580819D02*
X118309524Y-57580819D01*
X118309524Y-57580819D02*
X118500000Y-56866533D01*
X118500000Y-56866533D02*
X118690476Y-57580819D01*
X118690476Y-57580819D02*
X118928572Y-56580819D01*
X119214286Y-56580819D02*
X119833333Y-56580819D01*
X119833333Y-56580819D02*
X119500000Y-56961771D01*
X119500000Y-56961771D02*
X119642857Y-56961771D01*
X119642857Y-56961771D02*
X119738095Y-57009390D01*
X119738095Y-57009390D02*
X119785714Y-57057009D01*
X119785714Y-57057009D02*
X119833333Y-57152247D01*
X119833333Y-57152247D02*
X119833333Y-57390342D01*
X119833333Y-57390342D02*
X119785714Y-57485580D01*
X119785714Y-57485580D02*
X119738095Y-57533200D01*
X119738095Y-57533200D02*
X119642857Y-57580819D01*
X119642857Y-57580819D02*
X119357143Y-57580819D01*
X119357143Y-57580819D02*
X119261905Y-57533200D01*
X119261905Y-57533200D02*
X119214286Y-57485580D01*
X122166667Y-25033200D02*
X122309524Y-25080819D01*
X122309524Y-25080819D02*
X122547619Y-25080819D01*
X122547619Y-25080819D02*
X122642857Y-25033200D01*
X122642857Y-25033200D02*
X122690476Y-24985580D01*
X122690476Y-24985580D02*
X122738095Y-24890342D01*
X122738095Y-24890342D02*
X122738095Y-24795104D01*
X122738095Y-24795104D02*
X122690476Y-24699866D01*
X122690476Y-24699866D02*
X122642857Y-24652247D01*
X122642857Y-24652247D02*
X122547619Y-24604628D01*
X122547619Y-24604628D02*
X122357143Y-24557009D01*
X122357143Y-24557009D02*
X122261905Y-24509390D01*
X122261905Y-24509390D02*
X122214286Y-24461771D01*
X122214286Y-24461771D02*
X122166667Y-24366533D01*
X122166667Y-24366533D02*
X122166667Y-24271295D01*
X122166667Y-24271295D02*
X122214286Y-24176057D01*
X122214286Y-24176057D02*
X122261905Y-24128438D01*
X122261905Y-24128438D02*
X122357143Y-24080819D01*
X122357143Y-24080819D02*
X122595238Y-24080819D01*
X122595238Y-24080819D02*
X122738095Y-24128438D01*
X123071429Y-24080819D02*
X123309524Y-25080819D01*
X123309524Y-25080819D02*
X123500000Y-24366533D01*
X123500000Y-24366533D02*
X123690476Y-25080819D01*
X123690476Y-25080819D02*
X123928572Y-24080819D01*
X124261905Y-24176057D02*
X124309524Y-24128438D01*
X124309524Y-24128438D02*
X124404762Y-24080819D01*
X124404762Y-24080819D02*
X124642857Y-24080819D01*
X124642857Y-24080819D02*
X124738095Y-24128438D01*
X124738095Y-24128438D02*
X124785714Y-24176057D01*
X124785714Y-24176057D02*
X124833333Y-24271295D01*
X124833333Y-24271295D02*
X124833333Y-24366533D01*
X124833333Y-24366533D02*
X124785714Y-24509390D01*
X124785714Y-24509390D02*
X124214286Y-25080819D01*
X124214286Y-25080819D02*
X124833333Y-25080819D01*
X153166667Y-18033200D02*
X153309524Y-18080819D01*
X153309524Y-18080819D02*
X153547619Y-18080819D01*
X153547619Y-18080819D02*
X153642857Y-18033200D01*
X153642857Y-18033200D02*
X153690476Y-17985580D01*
X153690476Y-17985580D02*
X153738095Y-17890342D01*
X153738095Y-17890342D02*
X153738095Y-17795104D01*
X153738095Y-17795104D02*
X153690476Y-17699866D01*
X153690476Y-17699866D02*
X153642857Y-17652247D01*
X153642857Y-17652247D02*
X153547619Y-17604628D01*
X153547619Y-17604628D02*
X153357143Y-17557009D01*
X153357143Y-17557009D02*
X153261905Y-17509390D01*
X153261905Y-17509390D02*
X153214286Y-17461771D01*
X153214286Y-17461771D02*
X153166667Y-17366533D01*
X153166667Y-17366533D02*
X153166667Y-17271295D01*
X153166667Y-17271295D02*
X153214286Y-17176057D01*
X153214286Y-17176057D02*
X153261905Y-17128438D01*
X153261905Y-17128438D02*
X153357143Y-17080819D01*
X153357143Y-17080819D02*
X153595238Y-17080819D01*
X153595238Y-17080819D02*
X153738095Y-17128438D01*
X154071429Y-17080819D02*
X154309524Y-18080819D01*
X154309524Y-18080819D02*
X154500000Y-17366533D01*
X154500000Y-17366533D02*
X154690476Y-18080819D01*
X154690476Y-18080819D02*
X154928572Y-17080819D01*
X155833333Y-18080819D02*
X155261905Y-18080819D01*
X155547619Y-18080819D02*
X155547619Y-17080819D01*
X155547619Y-17080819D02*
X155452381Y-17223676D01*
X155452381Y-17223676D02*
X155357143Y-17318914D01*
X155357143Y-17318914D02*
X155261905Y-17366533D01*
X132838333Y-63237054D02*
X132505000Y-62760863D01*
X132266905Y-63237054D02*
X132266905Y-62237054D01*
X132266905Y-62237054D02*
X132647857Y-62237054D01*
X132647857Y-62237054D02*
X132743095Y-62284673D01*
X132743095Y-62284673D02*
X132790714Y-62332292D01*
X132790714Y-62332292D02*
X132838333Y-62427530D01*
X132838333Y-62427530D02*
X132838333Y-62570387D01*
X132838333Y-62570387D02*
X132790714Y-62665625D01*
X132790714Y-62665625D02*
X132743095Y-62713244D01*
X132743095Y-62713244D02*
X132647857Y-62760863D01*
X132647857Y-62760863D02*
X132266905Y-62760863D01*
X133171667Y-62237054D02*
X133790714Y-62237054D01*
X133790714Y-62237054D02*
X133457381Y-62618006D01*
X133457381Y-62618006D02*
X133600238Y-62618006D01*
X133600238Y-62618006D02*
X133695476Y-62665625D01*
X133695476Y-62665625D02*
X133743095Y-62713244D01*
X133743095Y-62713244D02*
X133790714Y-62808482D01*
X133790714Y-62808482D02*
X133790714Y-63046577D01*
X133790714Y-63046577D02*
X133743095Y-63141815D01*
X133743095Y-63141815D02*
X133695476Y-63189435D01*
X133695476Y-63189435D02*
X133600238Y-63237054D01*
X133600238Y-63237054D02*
X133314524Y-63237054D01*
X133314524Y-63237054D02*
X133219286Y-63189435D01*
X133219286Y-63189435D02*
X133171667Y-63141815D01*
X132833333Y-59304819D02*
X132500000Y-58828628D01*
X132261905Y-59304819D02*
X132261905Y-58304819D01*
X132261905Y-58304819D02*
X132642857Y-58304819D01*
X132642857Y-58304819D02*
X132738095Y-58352438D01*
X132738095Y-58352438D02*
X132785714Y-58400057D01*
X132785714Y-58400057D02*
X132833333Y-58495295D01*
X132833333Y-58495295D02*
X132833333Y-58638152D01*
X132833333Y-58638152D02*
X132785714Y-58733390D01*
X132785714Y-58733390D02*
X132738095Y-58781009D01*
X132738095Y-58781009D02*
X132642857Y-58828628D01*
X132642857Y-58828628D02*
X132261905Y-58828628D01*
X133214286Y-58400057D02*
X133261905Y-58352438D01*
X133261905Y-58352438D02*
X133357143Y-58304819D01*
X133357143Y-58304819D02*
X133595238Y-58304819D01*
X133595238Y-58304819D02*
X133690476Y-58352438D01*
X133690476Y-58352438D02*
X133738095Y-58400057D01*
X133738095Y-58400057D02*
X133785714Y-58495295D01*
X133785714Y-58495295D02*
X133785714Y-58590533D01*
X133785714Y-58590533D02*
X133738095Y-58733390D01*
X133738095Y-58733390D02*
X133166667Y-59304819D01*
X133166667Y-59304819D02*
X133785714Y-59304819D01*
X132838333Y-56937054D02*
X132505000Y-56460863D01*
X132266905Y-56937054D02*
X132266905Y-55937054D01*
X132266905Y-55937054D02*
X132647857Y-55937054D01*
X132647857Y-55937054D02*
X132743095Y-55984673D01*
X132743095Y-55984673D02*
X132790714Y-56032292D01*
X132790714Y-56032292D02*
X132838333Y-56127530D01*
X132838333Y-56127530D02*
X132838333Y-56270387D01*
X132838333Y-56270387D02*
X132790714Y-56365625D01*
X132790714Y-56365625D02*
X132743095Y-56413244D01*
X132743095Y-56413244D02*
X132647857Y-56460863D01*
X132647857Y-56460863D02*
X132266905Y-56460863D01*
X133790714Y-56937054D02*
X133219286Y-56937054D01*
X133505000Y-56937054D02*
X133505000Y-55937054D01*
X133505000Y-55937054D02*
X133409762Y-56079911D01*
X133409762Y-56079911D02*
X133314524Y-56175149D01*
X133314524Y-56175149D02*
X133219286Y-56222768D01*
X178179524Y-55654295D02*
X178179524Y-54854295D01*
X178179524Y-54854295D02*
X178370000Y-54854295D01*
X178370000Y-54854295D02*
X178484286Y-54892390D01*
X178484286Y-54892390D02*
X178560476Y-54968580D01*
X178560476Y-54968580D02*
X178598571Y-55044771D01*
X178598571Y-55044771D02*
X178636667Y-55197152D01*
X178636667Y-55197152D02*
X178636667Y-55311438D01*
X178636667Y-55311438D02*
X178598571Y-55463819D01*
X178598571Y-55463819D02*
X178560476Y-55540009D01*
X178560476Y-55540009D02*
X178484286Y-55616200D01*
X178484286Y-55616200D02*
X178370000Y-55654295D01*
X178370000Y-55654295D02*
X178179524Y-55654295D01*
X178903333Y-54854295D02*
X179398571Y-54854295D01*
X179398571Y-54854295D02*
X179131905Y-55159057D01*
X179131905Y-55159057D02*
X179246190Y-55159057D01*
X179246190Y-55159057D02*
X179322381Y-55197152D01*
X179322381Y-55197152D02*
X179360476Y-55235247D01*
X179360476Y-55235247D02*
X179398571Y-55311438D01*
X179398571Y-55311438D02*
X179398571Y-55501914D01*
X179398571Y-55501914D02*
X179360476Y-55578104D01*
X179360476Y-55578104D02*
X179322381Y-55616200D01*
X179322381Y-55616200D02*
X179246190Y-55654295D01*
X179246190Y-55654295D02*
X179017619Y-55654295D01*
X179017619Y-55654295D02*
X178941428Y-55616200D01*
X178941428Y-55616200D02*
X178903333Y-55578104D01*
X175949524Y-41154295D02*
X175949524Y-40354295D01*
X175949524Y-40354295D02*
X176140000Y-40354295D01*
X176140000Y-40354295D02*
X176254286Y-40392390D01*
X176254286Y-40392390D02*
X176330476Y-40468580D01*
X176330476Y-40468580D02*
X176368571Y-40544771D01*
X176368571Y-40544771D02*
X176406667Y-40697152D01*
X176406667Y-40697152D02*
X176406667Y-40811438D01*
X176406667Y-40811438D02*
X176368571Y-40963819D01*
X176368571Y-40963819D02*
X176330476Y-41040009D01*
X176330476Y-41040009D02*
X176254286Y-41116200D01*
X176254286Y-41116200D02*
X176140000Y-41154295D01*
X176140000Y-41154295D02*
X175949524Y-41154295D01*
X176711428Y-40430485D02*
X176749524Y-40392390D01*
X176749524Y-40392390D02*
X176825714Y-40354295D01*
X176825714Y-40354295D02*
X177016190Y-40354295D01*
X177016190Y-40354295D02*
X177092381Y-40392390D01*
X177092381Y-40392390D02*
X177130476Y-40430485D01*
X177130476Y-40430485D02*
X177168571Y-40506676D01*
X177168571Y-40506676D02*
X177168571Y-40582866D01*
X177168571Y-40582866D02*
X177130476Y-40697152D01*
X177130476Y-40697152D02*
X176673333Y-41154295D01*
X176673333Y-41154295D02*
X177168571Y-41154295D01*
X176179524Y-27654295D02*
X176179524Y-26854295D01*
X176179524Y-26854295D02*
X176370000Y-26854295D01*
X176370000Y-26854295D02*
X176484286Y-26892390D01*
X176484286Y-26892390D02*
X176560476Y-26968580D01*
X176560476Y-26968580D02*
X176598571Y-27044771D01*
X176598571Y-27044771D02*
X176636667Y-27197152D01*
X176636667Y-27197152D02*
X176636667Y-27311438D01*
X176636667Y-27311438D02*
X176598571Y-27463819D01*
X176598571Y-27463819D02*
X176560476Y-27540009D01*
X176560476Y-27540009D02*
X176484286Y-27616200D01*
X176484286Y-27616200D02*
X176370000Y-27654295D01*
X176370000Y-27654295D02*
X176179524Y-27654295D01*
X177398571Y-27654295D02*
X176941428Y-27654295D01*
X177170000Y-27654295D02*
X177170000Y-26854295D01*
X177170000Y-26854295D02*
X177093809Y-26968580D01*
X177093809Y-26968580D02*
X177017619Y-27044771D01*
X177017619Y-27044771D02*
X176941428Y-27082866D01*
%TO.C,U1*%
D12*
X145945000Y-60580000D02*
G75*
G02*
X145441000Y-60580000I-252000J0D01*
G01*
X145441000Y-60580000D02*
G75*
G02*
X145945000Y-60580000I252000J0D01*
G01*
X144802000Y-59700000D02*
G75*
G02*
X144298000Y-59700000I-252000J0D01*
G01*
X144298000Y-59700000D02*
G75*
G02*
X144802000Y-59700000I252000J0D01*
G01*
D13*
X162390000Y-78509000D02*
G75*
G02*
X160485000Y-80414000I-1905000J0D01*
G01*
X160485000Y-59459000D02*
G75*
G02*
X162390000Y-61364000I0J-1905000D01*
G01*
X157504000Y-58049000D02*
G75*
G02*
X158004000Y-58549000I0J-500000D01*
G01*
X149008728Y-58548728D02*
G75*
G02*
X149508728Y-58049001I500018J-291D01*
G01*
X146515000Y-80414000D02*
G75*
G02*
X144610000Y-78509000I1J1905001D01*
G01*
X144610000Y-61364000D02*
G75*
G02*
X146515000Y-59459000I1905001J-1D01*
G01*
X162390000Y-78509000D02*
X162390000Y-61364000D01*
X160485000Y-59459000D02*
X146515000Y-59459000D01*
D14*
X160485000Y-59459000D02*
X146515000Y-59459000D01*
D13*
X158004000Y-58549000D02*
X158004000Y-59459000D01*
X149508728Y-58049000D02*
X157504000Y-58049000D01*
X149005000Y-59459000D02*
X149008728Y-58548728D01*
X146515000Y-80414000D02*
X160485000Y-80414000D01*
X144610000Y-78509000D02*
X144610000Y-61364000D01*
D15*
%TO.C,SW3*%
X111515000Y-58015000D02*
X125485000Y-58015000D01*
X111515000Y-71985000D02*
X111515000Y-58015000D01*
X125485000Y-58015000D02*
X125485000Y-71985000D01*
X125485000Y-71985000D02*
X111515000Y-71985000D01*
%TO.C,SW2*%
X116515000Y-25515000D02*
X130485000Y-25515000D01*
X116515000Y-39485000D02*
X116515000Y-25515000D01*
X130485000Y-25515000D02*
X130485000Y-39485000D01*
X130485000Y-39485000D02*
X116515000Y-39485000D01*
%TO.C,SW1*%
X147515000Y-18515000D02*
X161485000Y-18515000D01*
X147515000Y-32485000D02*
X147515000Y-18515000D01*
X161485000Y-18515000D02*
X161485000Y-32485000D01*
X161485000Y-32485000D02*
X147515000Y-32485000D01*
%TO.C,R3*%
X131085000Y-63782235D02*
X134925000Y-63782235D01*
X131085000Y-65622235D02*
X134925000Y-65622235D01*
%TO.C,R2*%
X131080000Y-61080000D02*
X134920000Y-61080000D01*
X131080000Y-62920000D02*
X134920000Y-62920000D01*
%TO.C,R1*%
X131085000Y-57482235D02*
X134925000Y-57482235D01*
X131085000Y-59322235D02*
X134925000Y-59322235D01*
D16*
%TO.C,D3*%
X175630000Y-59000000D02*
G75*
G02*
X175430000Y-59000000I-100000J0D01*
G01*
X175430000Y-59000000D02*
G75*
G02*
X175630000Y-59000000I100000J0D01*
G01*
D13*
X176230000Y-57434000D02*
X176230000Y-60566000D01*
X176230000Y-57434000D02*
G75*
G02*
X176230000Y-60566000I2506124J-1566000D01*
G01*
D16*
%TO.C,D2*%
X173400000Y-44500000D02*
G75*
G02*
X173200000Y-44500000I-100000J0D01*
G01*
X173200000Y-44500000D02*
G75*
G02*
X173400000Y-44500000I100000J0D01*
G01*
D13*
X174000000Y-42934000D02*
X174000000Y-46066000D01*
X174000000Y-42934000D02*
G75*
G02*
X174000000Y-46066000I2506124J-1566000D01*
G01*
D16*
%TO.C,D1*%
X173630000Y-31000000D02*
G75*
G02*
X173430000Y-31000000I-100000J0D01*
G01*
X173430000Y-31000000D02*
G75*
G02*
X173630000Y-31000000I100000J0D01*
G01*
D13*
X174230000Y-29434000D02*
X174230000Y-32566000D01*
X174230000Y-29434000D02*
G75*
G02*
X174230000Y-32566000I2506124J-1566000D01*
G01*
%TD*%
M02*
