M48
; DRILL file {KiCad 9.0.3} date 2025-07-19T14:36:40-0700
; FORMAT={-:-/ absolute / metric / decimal}
; #@! TF.CreationDate,2025-07-19T14:36:40-07:00
; #@! TF.GenerationSoftware,Kicad,Pcbnew,9.0.3
; #@! TF.FileFunction,Plated,1,2,PTH
FMAT,2
METRIC
; #@! TA.AperFunction,Plated,PTH,ViaDrill
T1C0.300
; #@! TA.AperFunction,Plated,PTH,ComponentDrill
T2C0.700
; #@! TA.AperFunction,Plated,PTH,ComponentDrill
T3C0.889
; #@! TA.AperFunction,Plated,PTH,ComponentDrill
T4C1.210
; #@! TA.AperFunction,Plated,PTH,ComponentDrill
T5C1.500
%
G90
G05
T1
X181.0Y-42.0
T2
X130.46Y-62.0
X130.465Y-58.402
X130.465Y-64.702
X135.54Y-62.0
X135.545Y-58.402
X135.545Y-64.702
T3
X145.88Y-62.38
X145.88Y-64.92
X145.88Y-67.46
X145.88Y-70.0
X145.88Y-72.54
X145.88Y-75.08
X145.88Y-77.62
X161.12Y-62.38
X161.12Y-64.92
X161.12Y-67.46
X161.12Y-70.0
X161.12Y-72.54
X161.12Y-75.08
X161.12Y-77.62
T4
X175.23Y-44.5
X175.46Y-31.0
X177.46Y-59.0
X177.77Y-44.5
X178.0Y-31.0
X180.0Y-59.0
T5
X114.69Y-62.46
X119.69Y-29.96
X121.04Y-59.92
X126.04Y-27.42
X150.69Y-22.96
X157.04Y-20.42
M30
