%TF.GenerationSoftware,KiCad,Pcbnew,9.0.3*%
%TF.CreationDate,2025-07-19T14:34:47-07:00*%
%TF.ProjectId,Aurora,4175726f-7261-42e6-9b69-6361645f7063,rev?*%
%TF.SameCoordinates,Original*%
%TF.FileFunction,Copper,L2,Bot*%
%TF.FilePolarity,Positive*%
%FSLAX46Y46*%
G04 Gerber Fmt 4.6, Leading zero omitted, Abs format (unit mm)*
G04 Created by KiCad (PCBNEW 9.0.3) date 2025-07-19 14:34:47*
%MOMM*%
%LPD*%
G01*
G04 APERTURE LIST*
%TA.AperFunction,ComponentPad*%
%ADD10C,1.524000*%
%TD*%
%TA.AperFunction,ComponentPad*%
%ADD11C,2.200000*%
%TD*%
%TA.AperFunction,ComponentPad*%
%ADD12C,1.400000*%
%TD*%
%TA.AperFunction,ComponentPad*%
%ADD13R,1.815000X1.815000*%
%TD*%
%TA.AperFunction,ComponentPad*%
%ADD14C,1.815000*%
%TD*%
%TA.AperFunction,ViaPad*%
%ADD15C,0.600000*%
%TD*%
%TA.AperFunction,Conductor*%
%ADD16C,0.200000*%
%TD*%
G04 APERTURE END LIST*
D10*
%TO.P,U1,14,VBUS*%
%TO.N,unconnected-(U1-VBUS-Pad14)*%
X161120000Y-62380000D03*
%TO.P,U1,13,GND*%
%TO.N,GND*%
X161120000Y-64920000D03*
%TO.P,U1,12,3V3*%
%TO.N,unconnected-(U1-3V3-Pad12)*%
X161120000Y-67460000D03*
%TO.P,U1,11,GPIO3/MOSI*%
%TO.N,unconnected-(U1-GPIO3{slash}MOSI-Pad11)*%
X161120000Y-70000000D03*
%TO.P,U1,10,GPIO4/MISO*%
%TO.N,unconnected-(U1-GPIO4{slash}MISO-Pad10)*%
X161120000Y-72540000D03*
%TO.P,U1,9,GPIO2/SCK*%
%TO.N,unconnected-(U1-GPIO2{slash}SCK-Pad9)*%
X161120000Y-75080000D03*
%TO.P,U1,8,GPIO1/RX*%
%TO.N,unconnected-(U1-GPIO1{slash}RX-Pad8)*%
X161120000Y-77620000D03*
%TO.P,U1,7,GPIO0/TX*%
%TO.N,unconnected-(U1-GPIO0{slash}TX-Pad7)*%
X145880000Y-77620000D03*
%TO.P,U1,6,GPIO7/SCL*%
%TO.N,LED-3*%
X145880000Y-75080000D03*
%TO.P,U1,5,GPIO6/SDA*%
%TO.N,LED-2*%
X145880000Y-72540000D03*
%TO.P,U1,4,GPIO29/ADC3/A3*%
%TO.N,LED-1*%
X145880000Y-70000000D03*
%TO.P,U1,3,GPIO28/ADC2/A2*%
%TO.N,button-3*%
X145880000Y-67460000D03*
%TO.P,U1,2,GPIO27/ADC1/A1*%
%TO.N,button-2*%
X145880000Y-64920000D03*
%TO.P,U1,1,GPIO26/ADC0/A0*%
%TO.N,button-1*%
X145880000Y-62380000D03*
%TD*%
D11*
%TO.P,SW3,1,1*%
%TO.N,GND*%
X121040000Y-59920000D03*
%TO.P,SW3,2,2*%
%TO.N,button-3*%
X114690000Y-62460000D03*
%TD*%
%TO.P,SW2,1,1*%
%TO.N,GND*%
X126040000Y-27420000D03*
%TO.P,SW2,2,2*%
%TO.N,button-2*%
X119690000Y-29960000D03*
%TD*%
%TO.P,SW1,1,1*%
%TO.N,GND*%
X157040000Y-20420000D03*
%TO.P,SW1,2,2*%
%TO.N,button-1*%
X150690000Y-22960000D03*
%TD*%
D12*
%TO.P,R3,1*%
%TO.N,Net-(D1-PadA)*%
X130465000Y-64702235D03*
%TO.P,R3,2*%
%TO.N,LED-3*%
X135545000Y-64702235D03*
%TD*%
%TO.P,R2,1*%
%TO.N,Net-(D2-PadA)*%
X130460000Y-62000000D03*
%TO.P,R2,2*%
%TO.N,LED-2*%
X135540000Y-62000000D03*
%TD*%
%TO.P,R1,1*%
%TO.N,Net-(D3-PadA)*%
X130465000Y-58402235D03*
%TO.P,R1,2*%
%TO.N,LED-1*%
X135545000Y-58402235D03*
%TD*%
D13*
%TO.P,D3,C*%
%TO.N,GND*%
X177460000Y-59000000D03*
D14*
%TO.P,D3,A*%
%TO.N,Net-(D3-PadA)*%
X180000000Y-59000000D03*
%TD*%
D13*
%TO.P,D2,C*%
%TO.N,GND*%
X175230000Y-44500000D03*
D14*
%TO.P,D2,A*%
%TO.N,Net-(D2-PadA)*%
X177770000Y-44500000D03*
%TD*%
D13*
%TO.P,D1,C*%
%TO.N,GND*%
X175460000Y-31000000D03*
D14*
%TO.P,D1,A*%
%TO.N,Net-(D1-PadA)*%
X178000000Y-31000000D03*
%TD*%
D15*
%TO.N,Net-(D2-PadA)*%
X181000000Y-42000000D03*
%TD*%
D16*
%TO.N,GND*%
X161120000Y-64920000D02*
X161120000Y-64825100D01*
X161120000Y-64825100D02*
X166945100Y-59000000D01*
X166945100Y-59000000D02*
X177460000Y-59000000D01*
%TO.N,Net-(D2-PadA)*%
X130460000Y-62000000D02*
X130460000Y-61010051D01*
X130460000Y-61010051D02*
X162079551Y-29390500D01*
X179609500Y-30333322D02*
X179609500Y-40609500D01*
X162079551Y-29390500D02*
X178666678Y-29390500D01*
X178666678Y-29390500D02*
X179609500Y-30333322D01*
X179609500Y-40609500D02*
X181000000Y-42000000D01*
%TO.N,LED-3*%
X135545000Y-64702235D02*
X145880000Y-75037235D01*
%TO.N,LED-1*%
X135545000Y-58402235D02*
X135545000Y-59665000D01*
X135545000Y-59665000D02*
X145880000Y-70000000D01*
%TO.N,GND*%
X161120000Y-64920000D02*
X179208500Y-46831500D01*
X179208500Y-46831500D02*
X179208500Y-30499422D01*
X176668500Y-29791500D02*
X175460000Y-31000000D01*
X179208500Y-30499422D02*
X178500578Y-29791500D01*
X178500578Y-29791500D02*
X176668500Y-29791500D01*
%TO.N,Net-(D3-PadA)*%
X180000000Y-59000000D02*
X167937000Y-71063000D01*
X167937000Y-71063000D02*
X145439690Y-71063000D01*
X130050372Y-65703235D02*
X129459000Y-65111863D01*
X145439690Y-71063000D02*
X144817000Y-70440310D01*
X144817000Y-70440310D02*
X144817000Y-69504100D01*
X144817000Y-69504100D02*
X134205803Y-58892903D01*
X130879628Y-65703235D02*
X130050372Y-65703235D01*
X134205803Y-58892903D02*
X134205803Y-62377060D01*
X134205803Y-62377060D02*
X130879628Y-65703235D01*
X129459000Y-65111863D02*
X129459000Y-59408235D01*
X129459000Y-59408235D02*
X130465000Y-58402235D01*
%TO.N,Net-(D1-PadA)*%
X178000000Y-31000000D02*
X151598765Y-57401235D01*
X131461000Y-61070607D02*
X131461000Y-63706235D01*
X151598765Y-57401235D02*
X135130372Y-57401235D01*
X135130372Y-57401235D02*
X131461000Y-61070607D01*
X131461000Y-63706235D02*
X130465000Y-64702235D01*
%TO.N,LED-3*%
X145880000Y-75037235D02*
X145880000Y-75080000D01*
%TO.N,LED-2*%
X135540000Y-62000000D02*
X145880000Y-72340000D01*
X145880000Y-72340000D02*
X145880000Y-72540000D01*
%TD*%
M02*
