%TF.GenerationSoftware,KiCad,Pcbnew,9.0.3*%
%TF.CreationDate,2025-07-19T14:34:47-07:00*%
%TF.ProjectId,Aurora,4175726f-7261-42e6-9b69-6361645f7063,rev?*%
%TF.SameCoordinates,Original*%
%TF.FileFunction,Copper,L1,Top*%
%TF.FilePolarity,Positive*%
%FSLAX46Y46*%
G04 Gerber Fmt 4.6, Leading zero omitted, Abs format (unit mm)*
G04 Created by KiCad (PCBNEW 9.0.3) date 2025-07-19 14:34:47*
%MOMM*%
%LPD*%
G01*
G04 APERTURE LIST*
G04 Aperture macros list*
%AMRoundRect*
0 Rectangle with rounded corners*
0 $1 Rounding radius*
0 $2 $3 $4 $5 $6 $7 $8 $9 X,Y pos of 4 corners*
0 Add a 4 corners polygon primitive as box body*
4,1,4,$2,$3,$4,$5,$6,$7,$8,$9,$2,$3,0*
0 Add four circle primitives for the rounded corners*
1,1,$1+$1,$2,$3*
1,1,$1+$1,$4,$5*
1,1,$1+$1,$6,$7*
1,1,$1+$1,$8,$9*
0 Add four rect primitives between the rounded corners*
20,1,$1+$1,$2,$3,$4,$5,0*
20,1,$1+$1,$4,$5,$6,$7,0*
20,1,$1+$1,$6,$7,$8,$9,0*
20,1,$1+$1,$8,$9,$2,$3,0*%
G04 Aperture macros list end*
%TA.AperFunction,SMDPad,CuDef*%
%ADD10RoundRect,0.152400X-1.063600X-0.609600X1.063600X-0.609600X1.063600X0.609600X-1.063600X0.609600X0*%
%TD*%
%TA.AperFunction,ComponentPad*%
%ADD11C,1.524000*%
%TD*%
%TA.AperFunction,SMDPad,CuDef*%
%ADD12RoundRect,0.152400X1.063600X0.609600X-1.063600X0.609600X-1.063600X-0.609600X1.063600X-0.609600X0*%
%TD*%
%TA.AperFunction,ComponentPad*%
%ADD13C,2.200000*%
%TD*%
%TA.AperFunction,ComponentPad*%
%ADD14C,1.400000*%
%TD*%
%TA.AperFunction,ComponentPad*%
%ADD15R,1.815000X1.815000*%
%TD*%
%TA.AperFunction,ComponentPad*%
%ADD16C,1.815000*%
%TD*%
%TA.AperFunction,ViaPad*%
%ADD17C,0.600000*%
%TD*%
%TA.AperFunction,Conductor*%
%ADD18C,0.200000*%
%TD*%
G04 APERTURE END LIST*
D10*
%TO.P,U1,14,VBUS*%
%TO.N,unconnected-(U1-VBUS-Pad14)*%
X161955000Y-62380000D03*
D11*
X161120000Y-62380000D03*
D10*
%TO.P,U1,13,GND*%
%TO.N,GND*%
X161955000Y-64920000D03*
D11*
X161120000Y-64920000D03*
D10*
%TO.P,U1,12,3V3*%
%TO.N,unconnected-(U1-3V3-Pad12)*%
X161955000Y-67460000D03*
D11*
X161120000Y-67460000D03*
D10*
%TO.P,U1,11,GPIO3/MOSI*%
%TO.N,unconnected-(U1-GPIO3{slash}MOSI-Pad11)*%
X161955000Y-70000000D03*
D11*
X161120000Y-70000000D03*
D10*
%TO.P,U1,10,GPIO4/MISO*%
%TO.N,unconnected-(U1-GPIO4{slash}MISO-Pad10)*%
X161955000Y-72540000D03*
D11*
X161120000Y-72540000D03*
D10*
%TO.P,U1,9,GPIO2/SCK*%
%TO.N,unconnected-(U1-GPIO2{slash}SCK-Pad9)*%
X161955000Y-75080000D03*
D11*
X161120000Y-75080000D03*
D10*
%TO.P,U1,8,GPIO1/RX*%
%TO.N,unconnected-(U1-GPIO1{slash}RX-Pad8)*%
X161955000Y-77620000D03*
D11*
X161120000Y-77620000D03*
%TO.P,U1,7,GPIO0/TX*%
%TO.N,unconnected-(U1-GPIO0{slash}TX-Pad7)*%
X145880000Y-77620000D03*
D12*
X145045000Y-77620000D03*
D11*
%TO.P,U1,6,GPIO7/SCL*%
%TO.N,LED-3*%
X145880000Y-75080000D03*
D12*
X145045000Y-75080000D03*
D11*
%TO.P,U1,5,GPIO6/SDA*%
%TO.N,LED-2*%
X145880000Y-72540000D03*
D12*
X145045000Y-72540000D03*
D11*
%TO.P,U1,4,GPIO29/ADC3/A3*%
%TO.N,LED-1*%
X145880000Y-70000000D03*
D12*
X145045000Y-70000000D03*
D11*
%TO.P,U1,3,GPIO28/ADC2/A2*%
%TO.N,button-3*%
X145880000Y-67460000D03*
D12*
X145045000Y-67460000D03*
D11*
%TO.P,U1,2,GPIO27/ADC1/A1*%
%TO.N,button-2*%
X145880000Y-64920000D03*
D12*
X145045000Y-64920000D03*
D11*
%TO.P,U1,1,GPIO26/ADC0/A0*%
%TO.N,button-1*%
X145880000Y-62380000D03*
D12*
X145045000Y-62380000D03*
%TD*%
D13*
%TO.P,SW3,1,1*%
%TO.N,GND*%
X121040000Y-59920000D03*
%TO.P,SW3,2,2*%
%TO.N,button-3*%
X114690000Y-62460000D03*
%TD*%
%TO.P,SW2,1,1*%
%TO.N,GND*%
X126040000Y-27420000D03*
%TO.P,SW2,2,2*%
%TO.N,button-2*%
X119690000Y-29960000D03*
%TD*%
%TO.P,SW1,1,1*%
%TO.N,GND*%
X157040000Y-20420000D03*
%TO.P,SW1,2,2*%
%TO.N,button-1*%
X150690000Y-22960000D03*
%TD*%
D14*
%TO.P,R3,1*%
%TO.N,Net-(D1-PadA)*%
X130465000Y-64702235D03*
%TO.P,R3,2*%
%TO.N,LED-3*%
X135545000Y-64702235D03*
%TD*%
%TO.P,R2,1*%
%TO.N,Net-(D2-PadA)*%
X130460000Y-62000000D03*
%TO.P,R2,2*%
%TO.N,LED-2*%
X135540000Y-62000000D03*
%TD*%
%TO.P,R1,1*%
%TO.N,Net-(D3-PadA)*%
X130465000Y-58402235D03*
%TO.P,R1,2*%
%TO.N,LED-1*%
X135545000Y-58402235D03*
%TD*%
D15*
%TO.P,D3,C*%
%TO.N,GND*%
X177460000Y-59000000D03*
D16*
%TO.P,D3,A*%
%TO.N,Net-(D3-PadA)*%
X180000000Y-59000000D03*
%TD*%
D15*
%TO.P,D2,C*%
%TO.N,GND*%
X175230000Y-44500000D03*
D16*
%TO.P,D2,A*%
%TO.N,Net-(D2-PadA)*%
X177770000Y-44500000D03*
%TD*%
D15*
%TO.P,D1,C*%
%TO.N,GND*%
X175460000Y-31000000D03*
D16*
%TO.P,D1,A*%
%TO.N,Net-(D1-PadA)*%
X178000000Y-31000000D03*
%TD*%
D17*
%TO.N,Net-(D2-PadA)*%
X181000000Y-42000000D03*
%TD*%
D18*
%TO.N,GND*%
X157040000Y-20420000D02*
X157040000Y-60840000D01*
X157040000Y-60840000D02*
X161120000Y-64920000D01*
%TO.N,Net-(D2-PadA)*%
X181000000Y-42000000D02*
X180270000Y-42000000D01*
X180270000Y-42000000D02*
X177770000Y-44500000D01*
X130460000Y-62000000D02*
X131000000Y-62000000D01*
%TO.N,LED-1*%
X135500000Y-58447235D02*
X135500000Y-58500000D01*
X135545000Y-58402235D02*
X135500000Y-58447235D01*
%TO.N,LED-3*%
X135202235Y-64702235D02*
X135000000Y-64500000D01*
X135545000Y-64702235D02*
X135202235Y-64702235D01*
%TO.N,button-3*%
X114690000Y-62460000D02*
X119341530Y-62460000D01*
X119341530Y-62460000D02*
X124341530Y-67460000D01*
X124341530Y-67460000D02*
X145880000Y-67460000D01*
%TO.N,button-2*%
X119690000Y-29960000D02*
X119639000Y-30011000D01*
X119639000Y-30011000D02*
X119639000Y-60500314D01*
X119639000Y-60500314D02*
X122839921Y-63701235D01*
X122839921Y-63701235D02*
X144661235Y-63701235D01*
X144661235Y-63701235D02*
X145880000Y-64920000D01*
%TO.N,GND*%
X121040000Y-59920000D02*
X126040000Y-54920000D01*
X126040000Y-54920000D02*
X126040000Y-27420000D01*
X126040000Y-27420000D02*
X133040000Y-20420000D01*
X133040000Y-20420000D02*
X157040000Y-20420000D01*
%TO.N,button-1*%
X150690000Y-22960000D02*
X150690000Y-56735000D01*
X150690000Y-56735000D02*
X145045000Y-62380000D01*
%TO.N,GND*%
X175460000Y-31000000D02*
X167620000Y-31000000D01*
X167620000Y-31000000D02*
X157040000Y-20420000D01*
X175230000Y-44500000D02*
X175230000Y-31230000D01*
X175230000Y-31230000D02*
X175460000Y-31000000D01*
X177460000Y-59000000D02*
X177460000Y-46730000D01*
X177460000Y-46730000D02*
X175230000Y-44500000D01*
%TD*%
M02*
